HIERARCHY
ROOT reference
{
	OFFSET 0.000000 0.000000 0.000000
	CHANNELS 6 Xposition Yposition Zposition Xrotation Yrotation Zrotation
	JOINT root
	{
		OFFSET 0.000000 93.199997 0.000000
		CHANNELS 3 Xrotation Yrotation Zrotation
		JOINT Hips
		{
			OFFSET 0.000000 0.000000 0.000000
			CHANNELS 3 Xrotation Yrotation Zrotation
			JOINT Spine
			{
				OFFSET 0.001517 -0.110504 -0.000112
				CHANNELS 3 Xrotation Yrotation Zrotation
				JOINT Spine1
				{
					OFFSET -0.769486 18.541901 -0.004703
					CHANNELS 3 Xrotation Yrotation Zrotation
					JOINT Spine2
					{
						OFFSET 1.405050 18.506500 -0.211107
						CHANNELS 3 Xrotation Yrotation Zrotation
						JOINT Neck
						{
							OFFSET -0.293624 18.555298 -0.402048
							CHANNELS 3 Xrotation Yrotation Zrotation
							JOINT Head
							{
								OFFSET -3.104060 11.106506 0.036758
								CHANNELS 3 Xrotation Yrotation Zrotation
								End Site
								{
									OFFSET 0.000000 0.100006 0.000000
								}
							}
						}
						JOINT RightShoulder
						{
							OFFSET -0.292041 18.474304 -4.040210
							CHANNELS 3 Xrotation Yrotation Zrotation
							JOINT RightArm
							{
								OFFSET -1.551871 -2.664993 -15.782799
								CHANNELS 3 Xrotation Yrotation Zrotation
								JOINT RightForearm
								{
									OFFSET -0.092029 -26.869102 -11.945900
									CHANNELS 3 Xrotation Yrotation Zrotation
									JOINT RightHand
									{
										OFFSET -6.788520 -23.655296 -3.967920
										CHANNELS 3 Xrotation Yrotation Zrotation
										End Site
										{
											OFFSET 0.000000 0.099998 0.000000
										}
									}
								}
							}
						}
						JOINT LeftShoulder
						{
							OFFSET -0.312819 18.631302 3.237820
							CHANNELS 3 Xrotation Yrotation Zrotation
							JOINT LeftArm
							{
								OFFSET -1.186509 -1.848450 15.930500
								CHANNELS 3 Xrotation Yrotation Zrotation
								JOINT LeftForearm
								{
									OFFSET -0.134937 -28.233200 8.217850
									CHANNELS 3 Xrotation Yrotation Zrotation
									JOINT LeftHand
									{
										OFFSET -6.615759 -23.973999 1.697269
										CHANNELS 3 Xrotation Yrotation Zrotation
										End Site
										{
											OFFSET 0.000000 0.099998 0.000000
										}
									}
								}
							}
						}
					}
				}
			}
			JOINT RightUpLeg
			{
				OFFSET 0.411402 0.104805 -9.548750
				CHANNELS 3 Xrotation Yrotation Zrotation
				JOINT RightLeg
				{
					OFFSET 3.365010 -44.888802 0.932777
					CHANNELS 3 Xrotation Yrotation Zrotation
					JOINT RightFoot
					{
						OFFSET 4.270081 -40.939098 1.153280
						CHANNELS 3 Xrotation Yrotation Zrotation
						JOINT RightToe
						{
							OFFSET -16.115700 -6.739770 -4.358678
							CHANNELS 3 Xrotation Yrotation Zrotation
							End Site
							{
								OFFSET 0.000000 0.100000 0.000000
							}
						}
					}
				}
			}
			JOINT LeftUpLeg
			{
				OFFSET -0.411410 -0.104797 9.548760
				CHANNELS 3 Xrotation Yrotation Zrotation
				JOINT LeftLeg
				{
					OFFSET -5.521759 -44.226501 6.381780
					CHANNELS 3 Xrotation Yrotation Zrotation
					JOINT LeftFoot
					{
						OFFSET 0.863033 -40.813702 5.391821
						CHANNELS 3 Xrotation Yrotation Zrotation
						JOINT LeftToe
						{
							OFFSET -16.379900 -7.360530 1.287842
							CHANNELS 3 Xrotation Yrotation Zrotation
							End Site
							{
								OFFSET 0.000000 0.100000 0.000000
							}
						}
					}
				}
			}
		}
	}
}
MOTION
Frames: 12
Frame Time: 0.041667
0.000000 0.000000 0.000000 -0.000000 0.000000 -0.000000 -0.000000 0.000000 -0.000000 -0.000002 -0.003219 -0.002688 0.000000 -0.000001 0.000001 -0.000000 -0.000000 0.000001 0.000000 0.000000 0.000001 -0.000000 0.000001 -0.000012 -0.000000 0.000001 -0.000004 -0.000000 0.000000 0.001173 0.000007 0.000012 0.000005 -0.000002 0.000001 -0.000000 0.000001 -0.000013 0.000001 -0.000002 0.000002 -0.000000 0.000001 -0.000005 -0.000001 -0.000004 -0.000007 -0.000001 0.000001 0.000004 -0.000000 0.000008 0.000002 0.000007 -0.000001 -0.008683 -0.000001 -0.000001 0.000004 0.000002 -0.000001 -0.000531 -0.000000 0.000001 -0.000003 -0.000008 0.000002 -0.000001 -0.000001 0.000001 0.000000 -0.000000 0.000000 -0.000117 -0.000003 
0.000000 0.000000 0.000000 -0.000000 0.000000 -0.000000 -0.000000 0.000000 -0.000000 -0.000002 -0.003219 -0.002688 0.000000 -0.000001 0.000001 -0.000000 -0.000000 0.000001 0.000000 0.000000 0.000001 -0.000000 0.000001 -0.000012 -0.000000 0.000001 -0.000004 -0.000000 0.000000 0.001173 0.000007 0.000012 0.000005 -0.000002 0.000001 -0.000000 0.000001 -0.000013 0.000001 -0.000002 0.000002 -0.000000 0.000001 -0.000005 -0.000001 -0.000004 -0.000007 -0.000001 0.000001 0.000004 -0.000000 0.000008 0.000002 0.000007 -0.000001 -0.008683 -0.000001 -0.000001 0.000004 0.000002 -0.000001 -0.000531 -0.000000 0.000001 -0.000003 -0.000008 0.000002 -0.000001 -0.000001 0.000001 0.000000 -0.000000 0.000000 -0.000117 -0.000003 
0.000000 0.000000 0.000000 -0.000000 0.000000 -0.000000 0.024409 0.172874 -0.034363 -0.122044 -0.003218 -0.002689 -0.049670 -0.012613 -0.033223 -0.069904 -0.035212 -0.041469 -0.048179 -0.023733 -0.025754 0.081217 0.111151 0.012758 0.165393 0.369816 0.037595 -0.035414 0.105397 0.001173 1.580907 -1.208220 1.545044 -1.807156 0.864725 -1.851599 1.047322 -2.277792 0.600183 0.017009 0.116912 -0.001117 -0.184046 -1.046137 0.138215 -0.539401 0.192331 0.663589 0.367700 0.427203 0.387117 0.163215 -0.113587 0.996467 0.399214 -0.008679 -1.585151 0.105343 -0.027706 0.816759 -0.000001 -0.000531 -0.000002 0.386644 -0.200528 1.063198 -0.154853 -0.239779 -1.809527 -0.020005 0.039860 0.677258 -0.745709 -0.000116 -0.029758 
0.000000 0.000000 0.000000 -0.000000 0.000000 -0.000000 0.037403 0.144969 0.190701 -0.026054 -0.003218 -0.002688 -0.177766 0.116494 -0.141844 -0.248372 0.146935 -0.188502 -0.169323 0.100409 -0.124018 0.255294 0.177876 0.039952 0.509197 0.666080 0.078259 -0.091597 0.675541 -0.005448 3.696627 -2.587534 3.866428 -4.633550 2.363800 -4.750482 0.898040 -6.783574 2.066887 -0.118636 0.539622 -0.019061 -0.429930 -1.215098 0.099163 -0.410409 0.146982 0.504991 0.443777 -0.308318 1.084302 0.291213 -0.051438 0.866279 0.396044 -0.008684 -1.572549 0.226530 -0.066827 0.819667 0.000001 -0.000531 -0.000001 0.528976 -0.284566 1.445728 -0.238046 -0.362067 -2.747396 -0.327632 -0.027593 0.846961 -0.643623 -0.000116 -0.160423 
0.000000 0.000000 0.000000 -0.000000 0.000000 -0.000000 0.048104 0.165853 0.457755 0.029356 -0.003219 -0.002688 -0.266839 0.319212 -0.206508 -0.370187 0.429742 -0.276541 -0.250613 0.292892 -0.183774 0.486514 0.245759 -0.034999 0.934493 0.969392 -0.082848 0.005863 1.276959 -0.030499 5.621427 -4.419095 6.248440 -8.481574 4.706593 -8.704091 -0.394766 -14.569873 3.851417 -0.216438 1.000720 -0.033434 -1.034052 0.164949 -0.148146 0.577564 -0.213787 -0.711597 -0.107133 -2.066278 1.484299 0.466244 -0.214938 0.687296 0.396141 -0.008681 -1.585151 0.098825 -0.116642 0.766104 0.000001 -0.000530 -0.000002 0.650014 -0.489096 1.376601 -0.257015 -0.389355 -2.958169 -0.676945 -0.103774 0.811307 -0.418628 -0.000116 -0.314653 
0.000000 0.000000 0.000000 -0.000000 0.000000 -0.000000 0.059263 0.295425 0.704884 0.003317 -0.003218 -0.002688 -0.273118 0.580131 -0.208346 -0.374324 0.785795 -0.280394 -0.250439 0.534862 -0.188078 0.728869 0.315172 -0.200903 1.360915 1.275297 -0.413558 0.281429 1.784109 -0.078673 7.084481 -7.299062 8.141375 -12.977901 7.915762 -13.336491 -1.793199 -23.929143 5.565366 -0.251298 1.394000 -0.041935 -2.076262 2.637036 -0.367074 2.435492 -0.957561 -3.008700 -1.138311 -3.950092 1.332490 0.718623 -0.664237 0.520845 0.396408 -0.008686 -1.585150 -0.221906 -0.164771 0.641907 -0.000002 -0.000531 0.000000 0.781448 -0.828963 0.946101 -0.217188 -0.331810 -2.514353 -1.016181 -0.196137 0.633520 -0.213228 0.000062 -0.462532 
0.000000 0.000000 0.000000 -0.000000 0.000000 -0.000000 0.072344 0.509077 0.902315 -0.061522 -0.003219 -0.002688 -0.125506 0.896582 -0.187654 -0.162980 1.211518 -0.258083 -0.102820 0.822608 -0.176875 0.827829 0.366394 -0.323089 1.536700 1.535298 -0.626272 0.638298 2.121173 -0.137243 7.632708 -10.380993 9.065601 -17.049269 11.296166 -17.546520 -0.277993 -29.451837 6.886579 -0.342697 1.560270 -0.049211 -3.593155 5.528739 -0.120158 4.994858 -2.126905 -6.195995 -2.256288 -4.347253 0.540575 0.943076 -1.216462 0.385693 0.396800 -0.008691 -1.585150 -0.459862 -0.180479 0.563165 -0.000002 -0.000531 0.000000 0.881151 -1.255423 0.550999 -0.176881 -0.272579 -2.060054 -1.304517 -0.280325 0.562580 0.019843 0.000235 -0.556137 
0.000000 0.000000 0.000000 -0.000000 0.000000 -0.000000 0.086760 0.984312 1.064937 -0.019884 -0.001086 -0.000868 0.079053 1.257203 -0.169550 0.127973 1.707254 -0.242670 0.099500 1.157205 -0.171150 0.808191 0.273860 -0.337221 1.530602 1.519084 -0.610407 1.005184 2.449274 -0.201044 7.418783 -12.746858 9.024217 -20.509378 14.552768 -21.139395 3.347403 -31.067491 8.428351 -0.385518 1.604669 -0.051951 -5.343466 7.981044 0.373902 7.677423 -3.542210 -9.570984 -3.090026 -3.771154 -0.592522 0.960417 -1.940438 0.337698 0.397277 -0.008682 -1.572550 -0.591164 -0.170742 0.453110 0.000001 -0.000531 0.000000 0.797571 -1.945672 0.168355 -0.141342 -0.219506 -1.655063 -1.413703 -0.293656 0.518355 0.142500 0.000402 -0.659539 
0.000000 0.000000 0.000000 -0.000000 0.000000 -0.000000 0.102643 1.804759 1.192092 0.157233 0.008238 0.006853 0.317898 1.663324 -0.147876 0.467145 2.279562 -0.225594 0.335379 1.543433 -0.164654 0.679459 -0.014261 -0.238984 1.364147 1.130868 -0.361610 1.336981 2.820422 -0.265868 6.642889 -13.713964 8.046427 -23.383060 17.544649 -24.136951 8.026940 -29.744822 9.749495 -0.363554 1.557049 -0.050179 -7.160554 9.921711 0.869076 10.204583 -5.064909 -12.789682 -3.653836 -2.891219 -1.811623 0.730324 -2.756999 0.331230 0.397798 -0.008681 -1.602910 -0.606042 -0.283850 0.408277 -0.000002 -0.000530 -0.000002 0.505048 -2.857464 -0.194823 -0.115571 -0.180507 -1.358707 -1.350142 -0.336069 0.500687 0.160118 0.000563 -0.757439 
0.000000 0.000000 0.000000 -0.000000 0.000000 -0.000000 0.120796 3.062089 1.270264 0.439648 0.023145 0.019106 0.578979 2.140419 -0.068286 0.839139 2.962332 -0.132298 0.595780 2.004928 -0.106580 0.498255 -0.570407 -0.081706 1.137168 0.239255 0.005335 1.645456 3.250494 -0.334462 6.090458 -12.652823 6.358603 -25.919535 20.415055 -26.795242 11.024047 -30.053768 9.714945 -0.282157 1.493121 -0.045121 -8.674384 11.501408 0.799892 12.209526 -6.412633 -15.375661 -4.354913 -3.607854 -2.533304 0.296168 -4.089020 0.346432 0.398322 -0.008689 -1.585151 -0.487723 -0.284176 0.334776 -0.000001 -0.000531 -0.000001 0.027865 -4.073950 -0.534762 -0.099233 -0.155556 -1.169614 -1.291731 -0.394856 0.481356 0.261324 0.000720 -0.732158 
0.000000 0.000000 0.000000 -0.000000 0.000000 -0.000000 0.141381 4.937123 1.301008 0.745762 0.039345 0.032305 0.937235 2.656777 0.066854 1.347565 3.701270 0.031513 0.950911 2.503699 -0.000475 0.198755 -1.331137 0.050315 0.707458 -1.044471 0.348685 1.979311 3.568872 -0.405330 5.206062 -11.164760 4.166581 -27.971409 22.902420 -28.956341 14.664251 -28.718152 8.635887 -0.162794 1.086012 -0.031780 -10.007996 13.038239 0.489961 13.793261 -7.570221 -17.442230 -4.945408 -4.219246 -2.989584 -0.279300 -5.854316 0.519985 0.398809 -0.008685 -1.602921 -0.265192 -0.319822 0.196256 0.000001 -0.000529 -0.000002 -0.590786 -5.841437 -0.833531 -0.093663 -0.147005 -1.104924 -1.006494 -0.406617 0.537470 0.250763 0.000875 -0.644814 
0.000000 0.000000 0.000000 -0.000000 0.000000 -0.000000 0.162551 7.436110 1.326226 1.053686 0.055709 0.045494 1.402588 3.219243 0.252006 2.006240 4.504563 0.256434 1.410431 3.044650 0.147963 -0.225465 -2.297761 0.143043 0.061781 -2.723658 0.639231 2.383148 3.721501 -0.480815 3.877455 -9.436075 1.772237 -29.577909 24.957494 -30.656235 19.277787 -25.511448 6.736764 -0.024066 0.297525 -0.007809 -11.164812 14.531000 -0.002740 14.943971 -8.465476 -18.958612 -5.434387 -4.290530 -3.361448 -0.948059 -8.109573 0.732031 0.399214 -0.008675 -1.585151 0.071524 -0.347576 0.004402 -0.000001 -0.000532 -0.000002 -1.335797 -8.126744 -1.120636 -0.102971 -0.161273 -1.212914 -0.461914 -0.413126 0.707076 0.104398 0.001026 -0.516466 
